# xmcd
# 
# Track frame offsets:
#     150
#     31275
#     57367
#     85915
#     112379
#     145963
#     178272
#     205138
#     220290
# 
# Disc length: 3333
# 
# Revision: 1
# Processed by: cddbd v1.5.2PL0 Copyright (c) Steve Scherf et al.
# Submitted via: fre:ac v1.0.31
# 
DISCID=8c0d0309
DTITLE=Matt Penman - Good Question
DYEAR=2017
DGENRE=Jazz
TTITLE0=Mr Right
TTITLE1=Small Famous
TTITLE2=Fifths and Bayou
TTITLE3=Blues and the Alternative Truth
TTITLE4=Cave Life
TTITLE5=Ride the Paper Tiger
TTITLE6=Copeland
TTITLE7=Meats
TTITLE8=Big Tent, Little Tent
EXTD=YEAR: 2017
EXTT0=
EXTT1=
EXTT2=
EXTT3=
EXTT4=
EXTT5=
EXTT6=
EXTT7=
EXTT8=
PLAYORDER=
